<svg width="40" height="40" viewBox="0 0 40 40" fill="none" xmlns="http://www.w3.org/2000/svg">
<circle cx="20" cy="20" r="20" fill="#EFEFEF"/>
<path d="M28.3994 27.2148H11.8274V13.6921H28.3994V27.2148ZM28.3994 11.7603H11.8274C11.1995 11.7603 10.5973 11.9638 10.1534 12.3261C9.70939 12.6884 9.45996 13.1797 9.45996 13.6921V27.2148C9.45996 27.7271 9.70939 28.2185 10.1534 28.5808C10.5973 28.9431 11.1995 29.1466 11.8274 29.1466H28.3994C29.0272 29.1466 29.6294 28.9431 30.0734 28.5808C30.5174 28.2185 30.7668 27.7271 30.7668 27.2148V13.6921C30.7668 13.1797 30.5174 12.6884 30.0734 12.3261C29.6294 11.9638 29.0272 11.7603 28.3994 11.7603ZM22.4334 20.7335L19.1782 24.1529L16.8582 21.8733L13.603 25.283H26.6238L22.4334 20.7335Z" fill="white"/>
</svg>
