<svg width="176" height="176" viewBox="0 0 176 176" fill="none" xmlns="http://www.w3.org/2000/svg">
<circle cx="88" cy="88" r="88" fill="#EFEFEF"/>
<path d="M124.958 119.75H52.0417V60.25H124.958V119.75ZM124.958 51.75H52.0417C49.279 51.75 46.6295 52.6455 44.676 54.2396C42.7225 55.8337 41.625 57.9957 41.625 60.25V119.75C41.625 122.004 42.7225 124.166 44.676 125.76C46.6295 127.354 49.279 128.25 52.0417 128.25H124.958C127.721 128.25 130.371 127.354 132.324 125.76C134.278 124.166 135.375 122.004 135.375 119.75V60.25C135.375 57.9957 134.278 55.8337 132.324 54.2396C130.371 52.6455 127.721 51.75 124.958 51.75ZM98.7083 91.2325L84.3854 106.278L74.1771 96.2475L59.8542 111.25H117.146L98.7083 91.2325Z" fill="#767676"/>
</svg>
