<svg width="50" height="50" viewBox="0 0 50 50" fill="none" xmlns="http://www.w3.org/2000/svg">
<g clip-path="url(#clip0_84_109)">
<path d="M24.6598 46.131H21.7473C19.3917 46.131 17.4751 44.2259 17.4751 41.8843V40.9049C16.4737 40.5868 15.5007 40.1853 14.5659 39.7045L13.8676 40.3986C12.1764 42.0818 9.46726 42.0325 7.82515 40.398L5.76664 38.3518C4.12163 36.7184 4.07432 34.0263 5.76719 32.3453L6.46493 31.6517C5.98119 30.7225 5.57739 29.7555 5.25734 28.7598H4.27209C1.91656 28.7598 0 26.8547 0 24.5131V21.6179C0 19.2763 1.91656 17.3712 4.27218 17.3712H5.25743C5.57748 16.3756 5.98128 15.4085 6.46502 14.4793L5.76673 13.7852C4.07486 12.1052 4.12154 9.41289 5.76728 7.77875L7.82596 5.73241C9.47188 4.09404 12.1804 4.05313 13.8683 5.73295L14.566 6.42645C15.5007 5.94567 16.4738 5.54419 17.4752 5.22605V4.24667C17.4752 1.90507 19.3917 0 21.7474 0H24.6599C27.0155 0 28.932 1.90507 28.932 4.24667V5.22614C29.9335 5.54419 30.9065 5.94567 31.8413 6.42654L32.5395 5.73241C34.2308 4.04917 36.9399 4.09854 38.582 5.73304L40.6405 7.7792C42.2855 9.41262 42.3328 12.1047 40.64 13.7857L39.9422 14.4793C40.426 15.4085 40.8298 16.3755 41.1498 17.3712H42.1351C44.4907 17.3712 46.4072 19.2763 46.4072 21.6179V24.5131C46.4072 26.8547 44.4907 28.7598 42.1351 28.7598H41.1498C40.8298 29.7554 40.426 30.7225 39.9422 31.6517L40.6405 32.3459C42.3324 34.0259 42.2857 36.7182 40.64 38.3523L38.5813 40.3987C36.9354 42.0371 34.2269 42.078 32.5389 40.3982L31.8413 39.7047C30.9065 40.1854 29.9335 40.5869 28.932 40.905V41.8845C28.932 44.2259 27.0155 46.131 24.6598 46.131ZM15.0204 36.8661C16.319 37.6295 17.7167 38.2062 19.1745 38.5802C19.7749 38.7342 20.1944 39.2724 20.1944 39.8888V41.8843C20.1944 42.7355 20.8911 43.428 21.7474 43.428H24.6599C25.5162 43.428 26.2129 42.7355 26.2129 41.8843V39.8888C26.2129 39.2724 26.6324 38.7342 27.2328 38.5802C28.6906 38.2062 30.0883 37.6295 31.3869 36.8661C31.9212 36.552 32.6014 36.6374 33.0404 37.0737L34.4624 38.4873C35.0754 39.0975 36.06 39.0833 36.658 38.4879L38.718 36.4403C39.3145 35.848 39.3345 34.8692 38.7185 34.2577L37.2959 32.8436C36.857 32.4073 36.7711 31.731 37.087 31.2C37.855 29.9092 38.4351 28.5199 38.8113 27.0706C38.9663 26.4738 39.5078 26.0569 40.1278 26.0569H42.1351C42.9914 26.0569 43.6882 25.3644 43.6882 24.5132V21.618C43.6882 20.7668 42.9914 20.0743 42.1351 20.0743H40.1278C39.5077 20.0743 38.9663 19.6573 38.8113 19.0606C38.4351 17.6113 37.8549 16.222 37.087 14.9312C36.7711 14.4002 36.857 13.7239 37.2959 13.2876L38.718 11.874C39.3327 11.2637 39.3166 10.2852 38.7185 9.69139L36.6587 7.64387C36.0617 7.04957 35.077 7.03219 34.463 7.64333L33.0405 9.05745C32.6016 9.4938 31.9211 9.57921 31.387 9.26512C30.0884 8.50171 28.6907 7.92498 27.2329 7.55098C26.6325 7.397 26.213 6.85874 26.213 6.24237V4.24667C26.213 3.39549 25.5163 2.70299 24.66 2.70299H21.7475C20.8912 2.70299 20.1945 3.39549 20.1945 4.24667V6.24219C20.1945 6.85856 19.775 7.39682 19.1746 7.5508C17.7168 7.9248 16.3191 8.50153 15.0205 9.26495C14.4861 9.57894 13.8059 9.49353 13.367 9.05727L11.9451 7.64369C11.332 7.03354 10.3474 7.04768 9.74942 7.64306L7.68946 9.69067C7.09288 10.283 7.07293 11.2617 7.68892 11.8733L9.1115 13.2874C9.55037 13.7237 9.6363 14.4 9.32042 14.931C8.55244 16.2218 7.97235 17.6111 7.5961 19.0604C7.44111 19.6572 6.89963 20.0741 6.27966 20.0741H4.27218C3.41592 20.0742 2.71917 20.7667 2.71917 21.6179V24.5131C2.71917 25.3643 3.41592 26.0568 4.27218 26.0568H6.27957C6.89963 26.0568 7.44102 26.4738 7.59601 27.0705C7.97226 28.5198 8.55244 29.9091 9.32033 31.1999C9.63621 31.7309 9.55028 32.4072 9.11141 32.8435L7.68937 34.257C7.07466 34.8674 7.0907 35.8459 7.68883 36.4397L9.7486 38.4872C10.3456 39.0815 11.3303 39.0989 11.9443 38.4878L13.3668 37.0737C13.6902 36.7523 14.363 36.4795 15.0204 36.8661Z" fill="white"/>
<path d="M23.2036 33.1025C17.636 33.1025 13.1064 28.5999 13.1064 23.0654C13.1064 17.531 17.636 13.0283 23.2036 13.0283C28.7713 13.0283 33.3008 17.531 33.3008 23.0654C33.3008 28.5999 28.7713 33.1025 23.2036 33.1025ZM23.2036 15.7313C19.1353 15.7313 15.8256 19.0214 15.8256 23.0654C15.8256 27.1094 19.1354 30.3995 23.2036 30.3995C27.2719 30.3995 30.5817 27.1094 30.5817 23.0654C30.5817 19.0214 27.272 15.7313 23.2036 15.7313Z" fill="white"/>
</g>
<rect x="20.3594" y="20.2383" width="29.6408" height="29.7619" fill="#2262C6"/>
<g clip-path="url(#clip1_84_109)">
<path d="M41.9219 37.4883H42.166C43.6623 37.4883 44.8797 36.2782 44.8797 34.7908C44.8797 33.4135 43.8358 32.2747 42.4932 32.1136L42.0592 26.3309C42.4538 26.0082 42.7059 25.5193 42.7059 24.9729C42.7059 24.0035 41.9125 23.2148 40.9373 23.2148C39.9622 23.2148 39.1688 24.0035 39.1688 24.9729C39.1688 25.5193 39.4208 26.0081 39.8154 26.3308L39.5315 30.1123C38.9437 29.8753 38.3017 29.7444 37.6293 29.7444H35.8489C35.655 29.7444 35.498 29.9005 35.498 30.0932C35.498 30.2858 35.655 30.4419 35.8489 30.4419H37.6294C40.0417 30.4419 42.0044 32.3929 42.0044 34.7909C42.0044 35.9524 41.5493 37.0445 40.7229 37.8659C39.8965 38.6874 38.7979 39.1399 37.6294 39.1399H32.431C30.0186 39.1399 28.0559 37.1889 28.0559 34.7909C28.0559 33.6293 28.5111 32.5373 29.3375 31.7158C30.1639 30.8943 31.2625 30.4419 32.431 30.4419H34.2115C34.4053 30.4419 34.5624 30.2858 34.5624 30.0932C34.5624 29.9005 34.4053 29.7444 34.2115 29.7444H32.431C31.7683 29.7444 31.1251 29.8701 30.5286 30.1096L30.2449 26.3309C30.6395 26.0082 30.8916 25.5193 30.8916 24.9729C30.8916 24.0035 30.0982 23.2148 29.123 23.2148C28.1478 23.2148 27.3545 24.0035 27.3545 24.9729C27.3545 25.5193 27.6066 26.0082 28.0012 26.3309L27.5672 32.1136C26.2247 32.2748 25.1807 33.4135 25.1807 34.7908C25.1807 36.2782 26.398 37.4883 27.8944 37.4883H28.1423C28.9669 38.7793 30.3647 39.6742 31.977 39.8169C31.4546 40.0598 30.9604 40.3648 30.5079 40.728C29.2317 41.7518 28.3383 43.1935 27.9924 44.7875L27.8454 45.4647C27.7626 45.8471 27.8568 46.241 28.1041 46.5454C28.3514 46.8498 28.7188 47.0244 29.1123 47.0244H40.948C41.3415 47.0244 41.709 46.8498 41.9563 46.5455C42.2036 46.241 42.2979 45.8471 42.2149 45.4646L42.0681 44.7877C42.0393 44.6547 42.0072 44.525 41.9727 44.4022C41.9206 44.2166 41.7269 44.1082 41.5404 44.1601C41.3538 44.2119 41.2447 44.4043 41.2968 44.5898C41.3276 44.6992 41.3563 44.8151 41.3821 44.9346L41.529 45.6116C41.567 45.787 41.5237 45.9676 41.4103 46.1072C41.2969 46.2468 41.1284 46.3268 40.948 46.3268H29.1123C28.932 46.3268 28.7634 46.2468 28.6501 46.1072C28.5366 45.9676 28.4934 45.7869 28.5313 45.6117L28.6782 44.9346C28.986 43.5169 29.7737 42.2329 30.899 41.3115V41.4612C30.899 41.8293 30.948 42.1938 31.0447 42.5448C31.0874 42.6998 31.2288 42.8015 31.3829 42.8015C31.4135 42.8015 31.4448 42.7975 31.4758 42.789C31.6627 42.7381 31.7727 42.5463 31.7215 42.3605C31.6413 42.0696 31.6006 41.767 31.6006 41.4612V40.8112C32.6252 40.1793 33.8173 39.8374 35.0302 39.8374C36.2639 39.8374 37.4472 40.1861 38.4597 40.8113V41.4612C38.4597 43.341 36.9212 44.8704 35.0302 44.8704C34.0174 44.8704 33.0621 44.4288 32.4092 43.6588C32.2844 43.5115 32.063 43.4928 31.9149 43.6169C31.7667 43.741 31.7478 43.9611 31.8728 44.1083C32.6591 45.0359 33.81 45.5679 35.0302 45.5679C37.3082 45.5679 39.1615 43.7257 39.1615 41.4612V41.3115C39.7806 41.8181 40.3098 42.4412 40.7115 43.1605C40.8055 43.3288 41.0191 43.3896 41.1885 43.2961C41.3579 43.2026 41.419 42.9903 41.325 42.8219C40.5778 41.4842 39.4337 40.4453 38.0855 39.817C39.2693 39.7129 40.3685 39.2047 41.2191 38.3592C41.488 38.0919 41.7229 37.7999 41.9219 37.4883ZM44.178 34.7908C44.178 35.8505 43.3444 36.7199 42.2949 36.7863C42.5643 36.1643 42.7061 35.4884 42.7061 34.7909C42.7061 34.0824 42.5582 33.4076 42.2918 32.7951C43.3428 32.8599 44.178 33.7301 44.178 34.7908ZM40.9373 23.9124C41.5256 23.9124 42.0042 24.3881 42.0042 24.9729C42.0042 25.5577 41.5256 26.0334 40.9373 26.0334C40.349 26.0334 39.8705 25.5577 39.8705 24.9729C39.8705 24.3881 40.349 23.9124 40.9373 23.9124ZM40.2102 30.4468L40.4933 26.6748C40.6352 26.7114 40.784 26.7309 40.9373 26.7309C41.0906 26.7309 41.2394 26.7114 41.3813 26.6748L41.7717 31.8764C41.3586 31.298 40.826 30.8096 40.2102 30.4468ZM29.123 23.9124C29.7113 23.9124 30.1899 24.3881 30.1899 24.9729C30.1899 25.5577 29.7113 26.0334 29.123 26.0334C28.5348 26.0334 28.0562 25.5577 28.0562 24.9729C28.0562 24.3881 28.5348 23.9124 29.123 23.9124ZM29.123 26.7309C29.2763 26.7309 29.4251 26.7114 29.5671 26.6748L29.8499 30.4432C29.4866 30.6572 29.1477 30.9179 28.8412 31.2225C28.6373 31.4252 28.4531 31.6423 28.2891 31.8712L28.679 26.6748C28.821 26.7114 28.9698 26.7309 29.123 26.7309ZM25.8824 34.7908C25.8824 33.7311 26.716 32.8617 27.7655 32.7954C27.4961 33.4174 27.3543 34.0933 27.3543 34.7909C27.3543 35.4994 27.5022 36.1741 27.7685 36.7865C26.7175 36.7216 25.8824 35.8515 25.8824 34.7908Z" fill="white"/>
<path d="M28.8672 34.7912C28.8672 36.7448 30.4662 38.3343 32.4315 38.3343H37.6297C39.5951 38.3343 41.1941 36.7448 41.1941 34.7912C41.1941 32.8375 39.5951 31.248 37.6297 31.248H32.4315C30.4662 31.248 28.8672 32.8375 28.8672 34.7912ZM40.4924 34.7912C40.4924 36.3602 39.2082 37.6367 37.6298 37.6367H32.4315C30.8531 37.6367 29.5689 36.3602 29.5689 34.7912C29.5689 33.2221 30.8531 31.9456 32.4315 31.9456H37.6297C39.2082 31.9456 40.4924 33.2221 40.4924 34.7912Z" fill="white"/>
<path d="M37.6293 36.8309C38.7608 36.8309 39.6814 35.9158 39.6814 34.7909C39.6814 34.1953 39.42 33.6308 38.9643 33.2423C38.8601 33.1535 38.7138 33.1332 38.5892 33.1902L35.7814 34.4741C35.6569 34.531 35.5771 34.6547 35.5771 34.7909C35.5771 35.9158 36.4977 36.8309 37.6293 36.8309ZM38.6608 33.9252C38.8654 34.1659 38.9796 34.4717 38.9796 34.7909C38.9796 35.5311 38.3738 36.1333 37.6292 36.1333C36.9584 36.1333 36.4002 35.6446 36.2963 35.0064L38.6608 33.9252Z" fill="white"/>
<path d="M31.096 33.2422C30.6403 33.6308 30.3789 34.1953 30.3789 34.7909C30.3789 35.9157 31.2995 36.8308 32.431 36.8308C33.5625 36.8308 34.4831 35.9157 34.4831 34.7909C34.4831 34.6547 34.4033 34.531 34.2789 34.4741L31.4711 33.1902C31.3466 33.1332 31.2001 33.1535 31.096 33.2422ZM32.431 36.1333C31.6864 36.1333 31.0806 35.5311 31.0806 34.7909C31.0806 34.4716 31.1949 34.1659 31.3995 33.9252L33.764 35.0064C33.66 35.6445 33.1019 36.1333 32.431 36.1333Z" fill="white"/>
<path d="M35.7862 43.2662C36.3966 43.2662 36.8931 42.7726 36.8931 42.1658C36.8931 41.5591 36.3966 41.0654 35.7862 41.0654H34.2739C33.6636 41.0654 33.167 41.5591 33.167 42.1658C33.167 42.7726 33.6636 43.2662 34.2739 43.2662H35.7862ZM33.8687 42.1658C33.8687 41.9437 34.0505 41.763 34.2739 41.763H35.7862C36.0096 41.763 36.1914 41.9437 36.1914 42.1658C36.1914 42.388 36.0096 42.5687 35.7862 42.5687H34.2739C34.0505 42.5687 33.8687 42.388 33.8687 42.1658Z" fill="white"/>
</g>
<defs>
<clipPath id="clip0_84_109">
<rect width="46.4072" height="46.131" fill="white"/>
</clipPath>
<clipPath id="clip1_84_109">
<rect width="23.9521" height="23.8095" fill="white" transform="translate(23.0537 23.2148)"/>
</clipPath>
</defs>
</svg>
