<svg width="72" height="63" viewBox="0 0 72 63" fill="none" xmlns="http://www.w3.org/2000/svg">
<path d="M40.4648 0.0332031C57.7461 0.0332031 71.7461 14.0957 71.7461 31.2832C71.7461 48.4707 57.7461 62.5332 40.4648 62.5332C29.4961 62.5332 19.9023 56.8457 14.3086 48.252L19.2461 44.3457C23.6523 51.502 31.4961 56.2832 40.4961 56.2832C47.1265 56.2832 53.4854 53.6493 58.1738 48.9609C62.8622 44.2725 65.4961 37.9136 65.4961 31.2832C65.4961 24.6528 62.8622 18.2939 58.1738 13.6055C53.4854 8.91712 47.1265 6.2832 40.4961 6.2832C27.7461 6.2832 17.2461 15.8457 15.7148 28.1582H24.3398L12.6523 39.8145L0.996094 28.1582H9.40234C10.9648 12.377 24.2773 0.0332031 40.4648 0.0332031ZM49.7148 25.7832C51.2773 25.8145 52.5586 27.0645 52.5586 28.6582V43.0645C52.5586 44.627 51.2773 45.9395 49.6836 45.9395H32.4023C30.8086 45.9395 29.5273 44.627 29.5273 43.0645V28.6582C29.5273 27.0645 30.8086 25.8145 32.3711 25.7832V22.627C32.3711 17.8457 36.2773 13.9707 41.0273 13.9707C45.8086 13.9707 49.7148 17.8457 49.7148 22.627V25.7832ZM41.0273 18.3457C38.6836 18.3457 36.7461 20.252 36.7461 22.627V25.7832H45.3398V22.627C45.3398 20.252 43.4023 18.3457 41.0273 18.3457Z" fill="#3F6095"/>
</svg>
