<svg width="349" height="84" viewBox="0 0 349 84" fill="none" xmlns="http://www.w3.org/2000/svg">
<path d="M124.41 52H109.95V31H114.39V48.1H124.41V52ZM127.369 36.25H131.569V52H127.369V36.25ZM126.739 32.32C126.739 31.68 126.969 31.15 127.429 30.73C127.889 30.29 128.539 30.07 129.379 30.07C130.239 30.07 130.919 30.29 131.419 30.73C131.919 31.17 132.169 31.7 132.169 32.32C132.169 32.9 131.919 33.4 131.419 33.82C130.919 34.24 130.239 34.45 129.379 34.45C128.539 34.45 127.889 34.24 127.429 33.82C126.969 33.4 126.739 32.9 126.739 32.32ZM141.931 44.41L142.561 46.84H143.041L143.491 44.35L146.431 36.25H150.961L143.761 52.15H141.361L133.861 36.25H138.751L141.931 44.41ZM165.993 50.56C165.313 51.08 164.383 51.53 163.203 51.91C162.043 52.27 160.793 52.45 159.453 52.45C156.753 52.45 154.773 51.71 153.513 50.23C152.253 48.75 151.623 46.72 151.623 44.14C151.623 41.4 152.333 39.33 153.753 37.93C155.173 36.51 157.173 35.8 159.753 35.8C160.593 35.8 161.423 35.91 162.243 36.13C163.063 36.33 163.793 36.68 164.433 37.18C165.073 37.66 165.583 38.32 165.963 39.16C166.363 39.98 166.563 41 166.563 42.22C166.563 42.64 166.533 43.1 166.473 43.6C166.433 44.1 166.353 44.62 166.233 45.16H155.733C155.833 46.52 156.223 47.53 156.903 48.19C157.603 48.83 158.733 49.15 160.293 49.15C161.233 49.15 162.073 49.02 162.813 48.76C163.573 48.48 164.153 48.2 164.553 47.92L165.993 50.56ZM159.693 39.1C158.453 39.1 157.533 39.44 156.933 40.12C156.333 40.78 155.983 41.63 155.883 42.67H162.663C162.743 41.57 162.543 40.7 162.063 40.06C161.583 39.42 160.793 39.1 159.693 39.1ZM191.036 58.36C190.496 58.5 189.966 58.59 189.446 58.63C188.926 58.69 188.406 58.72 187.886 58.72C186.786 58.72 185.706 58.62 184.646 58.42C183.606 58.22 182.596 57.99 181.616 57.73C180.656 57.49 179.716 57.27 178.796 57.07C177.896 56.87 177.046 56.77 176.246 56.77C175.706 56.77 175.196 56.83 174.716 56.95V53.05C175.336 52.93 175.956 52.87 176.576 52.87C177.476 52.87 178.376 52.97 179.276 53.17C180.196 53.37 181.126 53.58 182.066 53.8C183.006 54.04 183.966 54.26 184.946 54.46C185.946 54.66 186.986 54.76 188.066 54.76C189.066 54.76 190.056 54.66 191.036 54.46V58.36ZM169.376 41.5C169.376 39.78 169.596 38.24 170.036 36.88C170.476 35.52 171.106 34.38 171.926 33.46C172.766 32.52 173.786 31.81 174.986 31.33C176.186 30.83 177.546 30.58 179.066 30.58C180.686 30.58 182.096 30.85 183.296 31.39C184.516 31.91 185.526 32.65 186.326 33.61C187.146 34.57 187.756 35.72 188.156 37.06C188.576 38.4 188.786 39.88 188.786 41.5C188.786 43.22 188.556 44.76 188.096 46.12C187.656 47.48 187.016 48.63 186.176 49.57C185.336 50.49 184.316 51.2 183.116 51.7C181.916 52.18 180.566 52.42 179.066 52.42C177.446 52.42 176.026 52.16 174.806 51.64C173.606 51.1 172.596 50.35 171.776 49.39C170.976 48.43 170.376 47.28 169.976 45.94C169.576 44.6 169.376 43.12 169.376 41.5ZM174.086 41.5C174.086 42.54 174.186 43.49 174.386 44.35C174.586 45.21 174.886 45.95 175.286 46.57C175.686 47.19 176.196 47.67 176.816 48.01C177.456 48.35 178.206 48.52 179.066 48.52C180.646 48.52 181.876 47.98 182.756 46.9C183.636 45.82 184.076 44.02 184.076 41.5C184.076 40.5 183.986 39.57 183.806 38.71C183.626 37.85 183.326 37.11 182.906 36.49C182.506 35.85 181.986 35.36 181.346 35.02C180.726 34.66 179.966 34.48 179.066 34.48C177.506 34.48 176.286 35.04 175.406 36.16C174.526 37.28 174.086 39.06 174.086 41.5ZM204.013 51.04C203.333 51.5 202.513 51.85 201.553 52.09C200.613 52.33 199.633 52.45 198.613 52.45C197.253 52.45 196.103 52.25 195.163 51.85C194.243 51.45 193.483 50.88 192.883 50.14C192.303 49.4 191.883 48.53 191.623 47.53C191.363 46.51 191.233 45.38 191.233 44.14C191.233 41.52 191.873 39.48 193.153 38.02C194.453 36.54 196.333 35.8 198.793 35.8C199.993 35.8 200.973 35.9 201.733 36.1C202.513 36.28 203.203 36.52 203.803 36.82L202.783 40.18C202.263 39.96 201.743 39.8 201.223 39.7C200.723 39.58 200.133 39.52 199.453 39.52C198.193 39.52 197.223 39.89 196.543 40.63C195.883 41.35 195.553 42.52 195.553 44.14C195.553 44.78 195.633 45.38 195.793 45.94C195.953 46.48 196.203 46.96 196.543 47.38C196.883 47.8 197.313 48.13 197.833 48.37C198.353 48.61 198.963 48.73 199.663 48.73C200.503 48.73 201.163 48.66 201.643 48.52C202.143 48.36 202.613 48.15 203.053 47.89L204.013 51.04ZM217.753 52V43.33C217.753 41.97 217.543 41 217.123 40.42C216.723 39.82 215.973 39.52 214.873 39.52C214.073 39.52 213.333 39.78 212.653 40.3C211.993 40.8 211.553 41.47 211.333 42.31V52H207.133V31H211.333V38.17H211.693C212.233 37.47 212.903 36.9 213.703 36.46C214.523 36.02 215.553 35.8 216.793 35.8C217.653 35.8 218.403 35.91 219.043 36.13C219.683 36.33 220.213 36.69 220.633 37.21C221.073 37.71 221.403 38.39 221.623 39.25C221.843 40.09 221.953 41.14 221.953 42.4V52H217.753ZM226.114 37.33C227.014 36.93 228.114 36.6 229.414 36.34C230.734 36.08 232.094 35.95 233.494 35.95C234.594 35.95 235.514 36.08 236.254 36.34C237.014 36.6 237.614 36.98 238.054 37.48C238.494 37.96 238.804 38.55 238.984 39.25C239.184 39.93 239.284 40.69 239.284 41.53C239.284 42.55 239.244 43.56 239.164 44.56C239.084 45.56 239.044 46.62 239.044 47.74C239.044 48.5 239.094 49.24 239.194 49.96C239.294 50.68 239.454 51.37 239.674 52.03H236.254L235.564 49.69H235.204C234.684 50.39 234.024 50.99 233.224 51.49C232.424 51.99 231.394 52.24 230.134 52.24C229.374 52.24 228.674 52.13 228.034 51.91C227.414 51.69 226.874 51.38 226.414 50.98C225.974 50.56 225.624 50.07 225.364 49.51C225.124 48.95 225.004 48.34 225.004 47.68C225.004 45.9 225.594 44.56 226.774 43.66C227.974 42.74 229.784 42.28 232.204 42.28C232.764 42.28 233.324 42.33 233.884 42.43C234.444 42.51 234.834 42.57 235.054 42.61C235.114 42.19 235.144 41.83 235.144 41.53C235.144 40.77 234.954 40.21 234.574 39.85C234.194 39.49 233.484 39.31 232.444 39.31C231.484 39.31 230.544 39.43 229.624 39.67C228.724 39.89 227.924 40.17 227.224 40.51L226.114 37.33ZM231.604 48.88C232.544 48.88 233.294 48.66 233.854 48.22C234.414 47.78 234.824 47.32 235.084 46.84V45.04C234.984 45 234.824 44.96 234.604 44.92C234.404 44.88 234.174 44.84 233.914 44.8C233.674 44.76 233.424 44.73 233.164 44.71C232.924 44.69 232.704 44.68 232.504 44.68C231.424 44.68 230.624 44.88 230.104 45.28C229.584 45.66 229.324 46.14 229.324 46.72C229.324 47.44 229.524 47.98 229.924 48.34C230.344 48.7 230.904 48.88 231.604 48.88ZM241.717 36.25H244.117V34.09L248.317 32.98V36.25H252.547V39.76H248.317V45.22C248.317 46.48 248.437 47.39 248.677 47.95C248.937 48.49 249.437 48.76 250.177 48.76C250.637 48.76 251.027 48.73 251.347 48.67C251.667 48.59 252.007 48.47 252.367 48.31L253.237 51.46C252.597 51.74 251.857 51.98 251.017 52.18C250.197 52.38 249.397 52.48 248.617 52.48C247.057 52.48 245.917 52.1 245.197 51.34C244.477 50.56 244.117 49.32 244.117 47.62V39.76H241.717V36.25Z" fill="#2262C6"/>
<path d="M10.9986 21.1181C10.8242 20.6552 10.6967 20.1759 10.6179 19.6875H5.31543C5.45543 21.0954 5.82799 22.4703 6.41793 23.7563L10.9986 21.1181Z" fill="#2262C6"/>
<path d="M7.73047 26.0268C8.56425 27.1756 9.57418 28.1855 10.723 29.0193L13.3611 24.4387C12.979 24.1223 12.6275 23.7707 12.3111 23.3887L7.73047 26.0268Z" fill="#2262C6"/>
<path d="M10.9986 15.6323L6.41793 12.9941C5.82799 14.2801 5.45543 15.655 5.31543 17.0629H10.6179C10.6967 16.5745 10.8242 16.0952 10.9986 15.6323Z" fill="#2262C6"/>
<path d="M11.8386 66.9375H5.31543C5.59204 69.6764 6.72663 72.2579 8.5573 74.3138C9.70837 73.3923 10.9858 72.6409 12.3504 72.0825C12.0572 70.3819 11.8862 68.6625 11.8386 66.9375Z" fill="#2262C6"/>
<path d="M13.3611 12.3111L10.723 7.73047C9.57418 8.56425 8.56425 9.57418 7.73047 10.723L12.3111 13.3611C12.6275 12.979 12.979 12.6275 13.3611 12.3111Z" fill="#2262C6"/>
<path d="M12.3504 59.1678C10.9858 58.6094 9.70837 57.858 8.5573 56.9365C6.72663 58.9924 5.59204 61.5739 5.31543 64.3128H11.8386C11.8862 62.5878 12.0572 60.8684 12.3504 59.1678Z" fill="#2262C6"/>
<path d="M17.0619 26.1316C16.5735 26.0528 16.0943 25.9253 15.6313 25.751L12.9932 30.3316C14.2791 30.9215 15.654 31.2941 17.0619 31.4341V26.1316Z" fill="#2262C6"/>
<path d="M21.3146 57.4088C20.4877 54.3113 19.2933 52.5 18.3746 52.5C17.4558 52.5 16.2614 54.3113 15.4346 57.4088C16.3994 57.628 17.3851 57.7424 18.3746 57.75C19.364 57.7424 20.3497 57.628 21.3146 57.4088Z" fill="#2262C6"/>
<path d="M26.1316 17.0629H31.4341C31.2941 15.655 30.9215 14.2801 30.3316 12.9941L25.751 15.6323C25.9253 16.0952 26.0528 16.5745 26.1316 17.0629Z" fill="#2262C6"/>
<path d="M19.6875 26.1316V31.4341C21.0954 31.2941 22.4703 30.9215 23.7563 30.3316L21.1181 25.751C20.6552 25.9253 20.1759 26.0528 19.6875 26.1316Z" fill="#2262C6"/>
<path d="M29.0193 26.0268L24.4387 23.3887C24.1223 23.7707 23.7707 24.1223 23.3887 24.4387L26.0268 29.0193C27.1756 28.1855 28.1855 27.1756 29.0193 26.0268Z" fill="#2262C6"/>
<path d="M10.5264 76.1118C11.6358 76.9576 12.8776 77.614 14.2014 78.0543C13.6612 76.9817 13.2345 75.8556 12.9282 74.6943C12.078 75.0771 11.2725 75.5525 10.5264 76.1118Z" fill="#2262C6"/>
<path d="M68.25 49.9541V60.3754H78.6712C78.374 57.7138 77.1804 55.2324 75.2867 53.3386C73.393 51.4449 70.9116 50.2514 68.25 49.9541Z" fill="#2262C6"/>
<path d="M18.375 23.625C21.2745 23.625 23.625 21.2745 23.625 18.375C23.625 15.4755 21.2745 13.125 18.375 13.125C15.4755 13.125 13.125 15.4755 13.125 18.375C13.125 21.2745 15.4755 23.625 18.375 23.625Z" fill="#2262C6"/>
<path d="M31.4341 19.6875H26.1316C26.0528 20.1759 25.9253 20.6552 25.751 21.1181L30.3316 23.7563C30.9215 22.4703 31.2941 21.0954 31.4341 19.6875Z" fill="#2262C6"/>
<path d="M23.7563 6.41793C22.4703 5.82799 21.0954 5.45543 19.6875 5.31543V10.6179C20.1759 10.6967 20.6552 10.8242 21.1181 10.9986L23.7563 6.41793Z" fill="#2262C6"/>
<path d="M24.4387 13.3611L29.0193 10.723C28.1855 9.57418 27.1756 8.56425 26.0268 7.73047L23.3887 12.3111C23.7707 12.6275 24.1223 12.979 24.4387 13.3611Z" fill="#2262C6"/>
<path d="M17.0619 10.6179V5.31543C15.654 5.45543 14.2791 5.82799 12.9932 6.41793L15.6313 10.9986C16.0943 10.8242 16.5735 10.6967 17.0619 10.6179Z" fill="#2262C6"/>
<path d="M40.6875 34.125H43.3125V49.875H40.6875V34.125Z" fill="#2262C6"/>
<path d="M30.1875 39.375H32.8125V49.875H30.1875V39.375Z" fill="#2262C6"/>
<path d="M60.3745 66.9378V55.2041C58.1632 55.4501 56.0663 56.3157 54.3254 57.7011C52.5844 59.0865 51.2701 60.9354 50.5338 63.035C49.7975 65.1345 49.6691 67.3993 50.1634 69.5687C50.6577 71.738 51.7547 73.7236 53.328 75.2968C54.9012 76.8701 56.8868 77.9671 59.0562 78.4614C61.2255 78.9557 63.4903 78.8274 65.5899 78.091C67.6894 77.3547 69.5383 76.0404 70.9237 74.2994C72.3091 72.5585 73.1747 70.4616 73.4207 68.2503H61.687C61.3389 68.2503 61.005 68.1121 60.7589 67.8659C60.5127 67.6198 60.3745 67.2859 60.3745 66.9378Z" fill="#2262C6"/>
<path d="M24.3994 59.1678C24.6926 60.8684 24.8637 62.5878 24.9113 64.3128H31.4344C31.1578 61.5739 30.0232 58.9924 28.1925 56.9365C27.0415 57.858 25.7641 58.6094 24.3994 59.1678Z" fill="#2262C6"/>
<path d="M61.6875 52.5C61.9191 52.504 62.1456 52.5693 62.3438 52.6892C62.5421 52.809 62.7051 52.9793 62.8163 53.1825C64.6763 49.7499 65.6422 45.9042 65.625 42C65.6364 38.2114 64.7338 34.476 62.9937 31.1107C61.2536 27.7454 58.7274 24.8495 55.6294 22.6686C52.5314 20.4878 48.9531 19.0865 45.1981 18.5835C41.443 18.0805 37.6221 18.4908 34.0594 19.7794C33.7199 23.4521 32.1064 26.8903 29.4984 29.4984C26.8903 32.1064 23.4521 33.72 19.7794 34.0594C17.9069 39.1876 17.9069 44.8125 19.7794 49.9406C23.4548 50.2786 26.8958 51.8933 29.5045 54.5044C32.1132 57.1155 33.7248 60.558 34.0594 64.2338C38.3414 65.7532 42.9693 66.0129 47.3944 64.9819C47.8716 61.5277 49.5809 58.3623 52.2073 56.0687C54.8338 53.7751 58.2005 52.5077 61.6875 52.5ZM35.4375 51.1875C35.4375 51.5356 35.2992 51.8694 35.0531 52.1156C34.8069 52.3617 34.4731 52.5 34.125 52.5H28.875C28.5269 52.5 28.1931 52.3617 27.9469 52.1156C27.7008 51.8694 27.5625 51.5356 27.5625 51.1875V38.0625C27.5625 37.7144 27.7008 37.3806 27.9469 37.1344C28.1931 36.8883 28.5269 36.75 28.875 36.75H34.125C34.4731 36.75 34.8069 36.8883 35.0531 37.1344C35.2992 37.3806 35.4375 37.7144 35.4375 38.0625V51.1875ZM45.9375 51.1875C45.9375 51.5356 45.7992 51.8694 45.5531 52.1156C45.3069 52.3617 44.9731 52.5 44.625 52.5H39.375C39.0269 52.5 38.6931 52.3617 38.4469 52.1156C38.2008 51.8694 38.0625 51.5356 38.0625 51.1875V32.8125C38.0625 32.4644 38.2008 32.1306 38.4469 31.8844C38.6931 31.6383 39.0269 31.5 39.375 31.5H44.625C44.9731 31.5 45.3069 31.6383 45.5531 31.8844C45.7992 32.1306 45.9375 32.4644 45.9375 32.8125V51.1875ZM48.5625 51.1875V30.1875C48.5625 29.8394 48.7008 29.5056 48.9469 29.2594C49.1931 29.0133 49.5269 28.875 49.875 28.875H55.125C55.4731 28.875 55.8069 29.0133 56.0531 29.2594C56.2992 29.5056 56.4375 29.8394 56.4375 30.1875V51.1875C56.4375 51.5356 56.2992 51.8694 56.0531 52.1156C55.8069 52.3617 55.4731 52.5 55.125 52.5H49.875C49.5269 52.5 49.1931 52.3617 48.9469 52.1156C48.7008 51.8694 48.5625 51.5356 48.5625 51.1875Z" fill="#2262C6"/>
<path d="M51.1875 31.5H53.8125V49.875H51.1875V31.5Z" fill="#2262C6"/>
<path d="M26.2238 55.1378C25.1143 54.2921 23.8726 53.6357 22.5488 53.1953C23.089 54.268 23.5157 55.3941 23.822 56.5553C24.6722 56.1725 25.4777 55.6971 26.2238 55.1378Z" fill="#2262C6"/>
<path d="M18.3751 60.3747C17.1997 60.3727 16.0283 60.2362 14.8839 59.9678C14.6468 61.4049 14.5064 62.8563 14.4639 64.3121H22.2864C22.2438 62.8563 22.1035 61.4049 21.8664 59.9678C20.722 60.2362 19.5506 60.3727 18.3751 60.3747Z" fill="#2262C6"/>
<path d="M14.8839 71.2819C17.1798 70.7394 19.5705 70.7394 21.8664 71.2819C22.1035 69.8448 22.2438 68.3934 22.2864 66.9375H14.4639C14.5064 68.3934 14.6468 69.8448 14.8839 71.2819Z" fill="#2262C6"/>
<path d="M15.4346 73.8412C16.2614 76.9387 17.4558 78.75 18.3746 78.75C19.2933 78.75 20.4877 76.9387 21.3146 73.8412C20.3497 73.622 19.364 73.5076 18.3746 73.5C17.3851 73.5076 16.3994 73.622 15.4346 73.8412Z" fill="#2262C6"/>
<path d="M12.9282 56.5553C13.2345 55.3941 13.6612 54.268 14.2014 53.1953C12.8776 53.6357 11.6358 54.2921 10.5264 55.1378C11.2725 55.6971 12.078 56.1725 12.9282 56.5553Z" fill="#2262C6"/>
<path d="M24.3994 72.0825C25.7641 72.6409 27.0415 73.3923 28.1925 74.3138C30.0232 72.2579 31.1578 69.6764 31.4344 66.9375H24.9113C24.8637 68.6625 24.6926 70.3819 24.3994 72.0825Z" fill="#2262C6"/>
<path d="M22.5488 78.0543C23.8726 77.614 25.1143 76.9576 26.2238 76.1118C25.4777 75.5525 24.6722 75.0771 23.822 74.6943C23.5157 75.8556 23.089 76.9817 22.5488 78.0543Z" fill="#2262C6"/>
<path d="M80.0625 2.625H66.9375V5.25H76.8862L59.6006 22.5356C60.2606 23.1169 60.8831 23.7394 61.4643 24.3994L78.75 7.11375V17.0625H81.375V3.9375C81.375 3.5894 81.2367 3.25556 80.9905 3.00942C80.7444 2.76328 80.4106 2.625 80.0625 2.625Z" fill="#2262C6"/>
</svg>
