<svg width="50" height="50" viewBox="0 0 50 50" fill="none" xmlns="http://www.w3.org/2000/svg">
<path d="M46.875 0.78125H3.125C1.83281 0.78125 0.78125 1.83281 0.78125 3.125V34.375C0.78125 35.6672 1.83281 36.7188 3.125 36.7188H24.2188C24.2188 43.6109 29.8266 49.2188 36.7188 49.2188C43.6109 49.2188 49.2188 43.6109 49.2188 36.7188V3.125C49.2188 1.83281 48.1672 0.78125 46.875 0.78125ZM3.125 2.34375H46.875C47.3055 2.34375 47.6562 2.69453 47.6562 3.125V7.03125H2.34375V3.125C2.34375 2.69453 2.69453 2.34375 3.125 2.34375ZM35.9375 36.3953L28.4625 43.8703C26.7969 41.9508 25.7812 39.4539 25.7812 36.7188C25.7812 30.9516 30.2711 26.2242 35.9375 25.8211V36.3953ZM29.5672 44.975L36.7188 37.8234L43.8703 44.975C41.9508 46.6406 39.4539 47.6562 36.7188 47.6562C33.9836 47.6562 31.4867 46.6406 29.5672 44.975ZM44.975 43.8703L37.5 36.3953V25.8211C43.1664 26.2242 47.6562 30.9516 47.6562 36.7188C47.6562 39.4539 46.6406 41.9508 44.975 43.8703ZM36.7188 24.2188C30.3563 24.2188 25.1 29 24.3273 35.1562H3.125C2.69453 35.1562 2.34375 34.8055 2.34375 34.375V8.59375H47.6562V30.6805C45.5227 26.832 41.4219 24.2188 36.7188 24.2188Z" fill="white"/>
<path d="M28.9063 36.7189C28.9063 33.2377 31.2422 30.1463 34.5875 29.2002L34.1625 27.6963C30.1477 28.8322 27.3438 32.5424 27.3438 36.7189H28.9063Z" fill="white"/>
<path d="M27.498 38.4223C27.6051 39.0051 27.7684 39.5785 27.9832 40.1277L29.4387 39.559C29.2598 39.102 29.1246 38.6238 29.0348 38.1387L27.498 38.4223Z" fill="white"/>
<path d="M44.207 34.4836L45.7047 34.0383C45.543 33.4945 45.3297 32.9625 45.0711 32.457L43.6797 33.168C43.8953 33.5891 44.0727 34.032 44.207 34.4836Z" fill="white"/>
<path d="M44.5309 36.7187C44.5309 36.9125 44.5238 37.1039 44.5098 37.2937L46.0684 37.4078C46.0848 37.1805 46.0934 36.95 46.0934 36.7187C46.0934 36.3805 46.0754 36.0406 46.0395 35.707L44.4863 35.8742C44.5152 36.1516 44.5309 36.4336 44.5309 36.7187Z" fill="white"/>
<path d="M43.7988 40.0262L45.2145 40.6887C45.4551 40.1738 45.6496 39.6348 45.7926 39.0863L44.2801 38.6934C44.1613 39.1496 43.9996 39.598 43.7988 40.0262Z" fill="white"/>
<path d="M7.03125 3.90625H8.59375V5.46875H7.03125V3.90625Z" fill="white"/>
<path d="M3.90625 3.90625H5.46875V5.46875H3.90625V3.90625Z" fill="white"/>
<path d="M10.1562 3.90625H11.7188V5.46875H10.1562V3.90625Z" fill="white"/>
<path d="M17.1875 10.1562H6.25C4.95781 10.1562 3.90625 11.2078 3.90625 12.5V18.75C3.90625 20.0422 4.95781 21.0938 6.25 21.0938H17.1875C18.4797 21.0938 19.5312 20.0422 19.5312 18.75V12.5C19.5312 11.2078 18.4797 10.1562 17.1875 10.1562ZM17.9688 18.75C17.9688 19.1805 17.618 19.5312 17.1875 19.5312H6.25C5.81953 19.5312 5.46875 19.1805 5.46875 18.75V12.5C5.46875 12.0695 5.81953 11.7188 6.25 11.7188H17.1875C17.618 11.7188 17.9688 12.0695 17.9688 12.5V18.75Z" fill="white"/>
<path d="M17.1875 22.6562H6.25C4.95781 22.6562 3.90625 23.7078 3.90625 25V31.25C3.90625 32.5422 4.95781 33.5938 6.25 33.5938H17.1875C18.4797 33.5938 19.5312 32.5422 19.5312 31.25V25C19.5312 23.7078 18.4797 22.6562 17.1875 22.6562ZM17.9688 31.25C17.9688 31.6805 17.618 32.0312 17.1875 32.0312H6.25C5.81953 32.0312 5.46875 31.6805 5.46875 31.25V25C5.46875 24.5695 5.81953 24.2188 6.25 24.2188H17.1875C17.618 24.2188 17.9688 24.5695 17.9688 25V31.25Z" fill="white"/>
<path d="M12.4996 16.0824L10.1559 13.7387L6.47852 17.416L7.5832 18.5207L10.1559 15.948L12.4996 18.2918L16.9582 13.8332L15.8535 12.7285L12.4996 16.0824Z" fill="white"/>
<path d="M14.8438 25.7812H13.2812V28.9062H11.7188V27.3438H10.1562V28.9062H8.59375V25.7812H7.03125V30.4688H16.4062V28.9062H14.8438V25.7812Z" fill="white"/>
<path d="M22.6562 10.1562H24.2188V11.7188H22.6562V10.1562Z" fill="white"/>
<path d="M25.7812 10.1562H46.0938V11.7188H25.7812V10.1562Z" fill="white"/>
<path d="M22.6562 13.2812H46.0938V14.8438H22.6562V13.2812Z" fill="white"/>
<path d="M22.6562 16.4062H27.3438V17.9688H22.6562V16.4062Z" fill="white"/>
<path d="M28.9062 16.4062H46.0938V17.9688H28.9062V16.4062Z" fill="white"/>
<path d="M22.6562 19.5312H36.7188V21.0938H22.6562V19.5312Z" fill="white"/>
<path d="M38.2812 19.5312H39.8438V21.0938H38.2812V19.5312Z" fill="white"/>
<path d="M41.4062 19.5312H42.9688V21.0938H41.4062V19.5312Z" fill="white"/>
<path d="M44.5312 19.5312H46.0938V21.0938H44.5312V19.5312Z" fill="white"/>
</svg>
