<svg width="35" height="35" viewBox="0 0 35 35" fill="none" xmlns="http://www.w3.org/2000/svg">
<path d="M4.375 9.75C4.375 9.19772 4.82272 8.75 5.375 8.75H29.625C30.1773 8.75 30.625 9.19772 30.625 9.75V10.6667C30.625 11.219 30.1773 11.6667 29.625 11.6667H5.375C4.82272 11.6667 4.375 11.219 4.375 10.6667V9.75ZM9 17.0417C9 16.4894 9.44772 16.0417 10 16.0417H29.625C30.1773 16.0417 30.625 16.4894 30.625 17.0417V17.9583C30.625 18.5106 30.1773 18.9583 29.625 18.9583H10C9.44772 18.9583 9 18.5106 9 17.9583V17.0417ZM4.375 24.3333C4.375 23.781 4.82272 23.3333 5.375 23.3333H29.625C30.1773 23.3333 30.625 23.781 30.625 24.3333V25.25C30.625 25.8023 30.1773 26.25 29.625 26.25H5.375C4.82272 26.25 4.375 25.8023 4.375 25.25V24.3333Z" fill="#1453B6"/>
</svg>
