<svg width="33" height="33" viewBox="0 0 33 33" fill="none" xmlns="http://www.w3.org/2000/svg">
<path d="M14.6289 11.625H17.8789V8.375H14.6289V11.625ZM16.2539 29.5C9.08766 29.5 3.25391 23.6663 3.25391 16.5C3.25391 9.33375 9.08766 3.5 16.2539 3.5C23.4202 3.5 29.2539 9.33375 29.2539 16.5C29.2539 23.6663 23.4202 29.5 16.2539 29.5ZM16.2539 0.25C14.1199 0.25 12.0068 0.670319 10.0353 1.48696C8.06376 2.3036 6.27237 3.50056 4.76342 5.00951C1.71595 8.05698 0.00390625 12.1902 0.00390625 16.5C0.00390625 20.8098 1.71595 24.943 4.76342 27.9905C6.27237 29.4994 8.06376 30.6964 10.0353 31.513C12.0068 32.3297 14.1199 32.75 16.2539 32.75C20.5637 32.75 24.6969 31.038 27.7444 27.9905C30.7919 24.943 32.5039 20.8098 32.5039 16.5C32.5039 14.366 32.0836 12.2529 31.267 10.2814C30.4503 8.30985 29.2533 6.51847 27.7444 5.00951C26.2354 3.50056 24.4441 2.3036 22.4725 1.48696C20.501 0.670319 18.3879 0.25 16.2539 0.25ZM14.6289 24.625H17.8789V14.875H14.6289V24.625Z" fill="black"/>
</svg>
