<svg width="50" height="50" viewBox="0 0 50 50" fill="none" xmlns="http://www.w3.org/2000/svg">
<g clip-path="url(#clip0_84_125)">
<path d="M24.6598 46.131H21.7473C19.3917 46.131 17.4751 44.2259 17.4751 41.8843V40.9049C16.4737 40.5868 15.5007 40.1853 14.5659 39.7045L13.8676 40.3986C12.1764 42.0818 9.46726 42.0325 7.82515 40.398L5.76664 38.3518C4.12163 36.7184 4.07432 34.0263 5.76719 32.3453L6.46493 31.6517C5.98119 30.7225 5.57739 29.7555 5.25734 28.7598H4.27209C1.91656 28.7598 0 26.8547 0 24.5131V21.6179C0 19.2763 1.91656 17.3712 4.27218 17.3712H5.25743C5.57748 16.3756 5.98128 15.4085 6.46502 14.4793L5.76673 13.7852C4.07486 12.1052 4.12154 9.41289 5.76728 7.77875L7.82596 5.73241C9.47188 4.09404 12.1804 4.05313 13.8683 5.73295L14.566 6.42645C15.5007 5.94567 16.4738 5.54419 17.4752 5.22605V4.24667C17.4752 1.90507 19.3917 0 21.7474 0H24.6599C27.0155 0 28.932 1.90507 28.932 4.24667V5.22614C29.9335 5.54419 30.9065 5.94567 31.8413 6.42654L32.5395 5.73241C34.2308 4.04917 36.9399 4.09854 38.582 5.73304L40.6405 7.7792C42.2855 9.41262 42.3328 12.1047 40.64 13.7857L39.9422 14.4793C40.426 15.4085 40.8298 16.3755 41.1498 17.3712H42.1351C44.4907 17.3712 46.4072 19.2763 46.4072 21.6179V24.5131C46.4072 26.8547 44.4907 28.7598 42.1351 28.7598H41.1498C40.8298 29.7554 40.426 30.7225 39.9422 31.6517L40.6405 32.3459C42.3324 34.0259 42.2857 36.7182 40.64 38.3523L38.5813 40.3987C36.9354 42.0371 34.2269 42.078 32.5389 40.3982L31.8413 39.7047C30.9065 40.1854 29.9335 40.5869 28.932 40.905V41.8845C28.932 44.2259 27.0155 46.131 24.6598 46.131ZM15.0204 36.8661C16.319 37.6295 17.7167 38.2062 19.1745 38.5802C19.7749 38.7342 20.1944 39.2724 20.1944 39.8888V41.8843C20.1944 42.7355 20.8911 43.428 21.7474 43.428H24.6599C25.5162 43.428 26.2129 42.7355 26.2129 41.8843V39.8888C26.2129 39.2724 26.6324 38.7342 27.2328 38.5802C28.6906 38.2062 30.0883 37.6295 31.3869 36.8661C31.9212 36.552 32.6014 36.6374 33.0404 37.0737L34.4624 38.4873C35.0754 39.0975 36.06 39.0833 36.658 38.4879L38.718 36.4403C39.3145 35.848 39.3345 34.8692 38.7185 34.2577L37.2959 32.8436C36.857 32.4073 36.7711 31.731 37.087 31.2C37.855 29.9092 38.4351 28.5199 38.8113 27.0706C38.9663 26.4738 39.5078 26.0569 40.1278 26.0569H42.1351C42.9914 26.0569 43.6882 25.3644 43.6882 24.5132V21.618C43.6882 20.7668 42.9914 20.0743 42.1351 20.0743H40.1278C39.5077 20.0743 38.9663 19.6573 38.8113 19.0606C38.4351 17.6113 37.8549 16.222 37.087 14.9312C36.7711 14.4002 36.857 13.7239 37.2959 13.2876L38.718 11.874C39.3327 11.2637 39.3166 10.2852 38.7185 9.69139L36.6587 7.64387C36.0617 7.04957 35.077 7.03219 34.463 7.64333L33.0405 9.05745C32.6016 9.4938 31.9211 9.57921 31.387 9.26512C30.0884 8.50171 28.6907 7.92498 27.2329 7.55098C26.6325 7.397 26.213 6.85874 26.213 6.24237V4.24667C26.213 3.39549 25.5163 2.70299 24.66 2.70299H21.7475C20.8912 2.70299 20.1945 3.39549 20.1945 4.24667V6.24219C20.1945 6.85856 19.775 7.39682 19.1746 7.5508C17.7168 7.9248 16.3191 8.50153 15.0205 9.26495C14.4861 9.57894 13.8059 9.49353 13.367 9.05727L11.9451 7.64369C11.332 7.03354 10.3474 7.04768 9.74942 7.64306L7.68946 9.69067C7.09288 10.283 7.07293 11.2617 7.68892 11.8733L9.1115 13.2874C9.55037 13.7237 9.6363 14.4 9.32042 14.931C8.55244 16.2218 7.97235 17.6111 7.5961 19.0604C7.44111 19.6572 6.89963 20.0741 6.27966 20.0741H4.27218C3.41592 20.0742 2.71917 20.7667 2.71917 21.6179V24.5131C2.71917 25.3643 3.41592 26.0568 4.27218 26.0568H6.27957C6.89963 26.0568 7.44102 26.4738 7.59601 27.0705C7.97226 28.5198 8.55244 29.9091 9.32033 31.1999C9.63621 31.7309 9.55028 32.4072 9.11141 32.8435L7.68937 34.257C7.07466 34.8674 7.0907 35.8459 7.68883 36.4397L9.7486 38.4872C10.3456 39.0815 11.3303 39.0989 11.9443 38.4878L13.3668 37.0737C13.6902 36.7523 14.363 36.4795 15.0204 36.8661Z" fill="white"/>
<path d="M23.2036 33.1025C17.636 33.1025 13.1064 28.5999 13.1064 23.0654C13.1064 17.531 17.636 13.0283 23.2036 13.0283C28.7713 13.0283 33.3008 17.531 33.3008 23.0654C33.3008 28.5999 28.7713 33.1025 23.2036 33.1025ZM23.2036 15.7313C19.1353 15.7313 15.8256 19.0214 15.8256 23.0654C15.8256 27.1094 19.1354 30.3995 23.2036 30.3995C27.2719 30.3995 30.5817 27.1094 30.5817 23.0654C30.5817 19.0214 27.272 15.7313 23.2036 15.7313Z" fill="white"/>
</g>
<rect x="20.3594" y="20.2383" width="29.6408" height="29.7619" fill="#2262C6"/>
<g clip-path="url(#clip1_84_125)">
<path d="M46.0122 34.3802L44.8941 33.6005C44.8231 31.0462 43.7524 28.6202 41.9097 26.8386C40.067 25.057 37.5978 24.0603 35.0272 24.0605C32.4566 24.0608 29.9876 25.0579 28.1453 26.8399C26.3029 28.6219 25.2326 31.048 25.1621 33.6023L24.0466 34.3802C24.0036 34.4103 23.9685 34.4502 23.9442 34.4966C23.9199 34.543 23.9072 34.5945 23.9072 34.6468V38.1087C23.9073 38.1606 23.9199 38.2117 23.9438 38.2577C23.9678 38.3038 24.0026 38.3435 24.0451 38.3736L25.2963 39.2623C25.3516 39.3018 25.4179 39.3232 25.486 39.3235H26.7319C26.8187 39.3235 26.902 39.2892 26.9634 39.2281C27.0248 39.1671 27.0593 39.0843 27.0594 38.998V33.7943C27.0594 33.7898 27.0609 33.7854 27.061 33.7807C27.1039 31.7085 27.9621 29.7355 29.4516 28.2851C30.941 26.8346 32.943 26.0223 35.0281 26.0223C37.1132 26.0223 39.1152 26.8346 40.6047 28.2851C42.0941 29.7355 42.9523 31.7085 42.9952 33.7807C42.9952 33.793 42.998 33.8045 42.9995 33.8163V38.9974C42.9995 39.0838 43.0341 39.1665 43.0955 39.2276C43.1569 39.2886 43.2401 39.3229 43.327 39.323H43.6224V39.698C43.6214 40.1925 43.4426 40.6705 43.1184 41.0456C42.7942 41.4208 42.3458 41.6685 41.8541 41.7441C42.2714 40.8048 42.4866 39.7891 42.486 38.7623V33.9922C42.486 32.026 41.7003 30.1404 40.3017 28.7501C38.903 27.3598 37.0061 26.5787 35.0281 26.5787C33.0502 26.5787 31.1532 27.3598 29.7546 28.7501C28.356 30.1404 27.5702 32.026 27.5702 33.9922V38.7632C27.5697 40.3996 28.1141 41.9902 29.1184 43.2868C30.1227 44.5834 31.5304 45.5131 33.1221 45.9309C34.7137 46.3487 36.3997 46.2312 37.9171 45.5965C39.4344 44.9619 40.6978 43.8459 41.5102 42.4227H41.5364C42.2631 42.4219 42.9598 42.1346 43.4737 41.6237C43.9875 41.1129 44.2766 40.4204 44.2774 39.698V39.3235H44.5729C44.6412 39.3235 44.7078 39.3023 44.7633 39.2629L46.0145 38.3741C46.0569 38.344 46.0915 38.3043 46.1153 38.2582C46.1392 38.2121 46.1516 38.161 46.1516 38.1092V34.6468C46.1516 34.5945 46.1389 34.543 46.1147 34.4966C46.0904 34.4502 46.0553 34.4103 46.0122 34.3802ZM35.0279 27.2298C36.8315 27.232 38.5606 27.9452 39.8359 29.2129C41.1112 30.4806 41.8287 32.1994 41.8309 33.9922V35.7452C41.6039 35.7693 41.3758 35.7821 41.1475 35.7835C39.9653 35.7807 38.8044 35.4701 37.7804 34.8827C36.7565 34.2953 35.9052 33.4515 35.3112 32.4353C35.2825 32.386 35.2411 32.345 35.1914 32.3165C35.1417 32.288 35.0853 32.273 35.0279 32.273C34.9705 32.273 34.9142 32.288 34.8644 32.3165C34.8147 32.345 34.7734 32.386 34.7446 32.4353C34.1507 33.4515 33.2994 34.2953 32.2754 34.8827C31.2515 35.4701 30.0906 35.7807 28.9084 35.7835C28.6801 35.7821 28.452 35.7693 28.225 35.7452V33.9922C28.2272 32.1994 28.9447 30.4806 30.22 29.2128C31.4954 27.9451 33.2245 27.2319 35.0281 27.2298H35.0279ZM35.0279 45.5257C33.2244 45.5235 31.4954 44.8102 30.2201 43.5425C28.9448 42.2748 28.2274 40.5561 28.2252 38.7632V36.3996C28.4523 36.4202 28.6804 36.4346 28.9085 36.4346C30.1153 36.4317 31.3031 36.1365 32.3693 35.5747C33.4355 35.0128 34.3479 34.2012 35.0276 33.21C35.7074 34.2015 36.6201 35.0133 37.6866 35.5751C38.7532 36.137 39.9414 36.432 41.1484 36.4346C41.3766 36.4346 41.6047 36.4202 41.8318 36.3996V38.7632C41.8324 39.8075 41.5882 40.8375 41.1185 41.7716H38.0468C37.9774 41.5583 37.8417 41.3722 37.6594 41.2402C37.477 41.1082 37.2573 41.0369 37.0317 41.0367H35.7345C35.4516 41.0367 35.1803 41.1484 34.9803 41.3472C34.7803 41.5461 34.6679 41.8158 34.6679 42.097C34.6679 42.3782 34.7803 42.6478 34.9803 42.8467C35.1803 43.0455 35.4516 43.1572 35.7345 43.1572H37.0317C37.2573 43.1569 37.477 43.0856 37.6593 42.9535C37.8416 42.8215 37.9772 42.6355 38.0466 42.4221H40.7444C40.1289 43.3735 39.283 44.1562 38.2844 44.6984C37.2857 45.2406 36.1661 45.5251 35.0281 45.5257H35.0279ZM37.4419 42.117C37.4368 42.2219 37.3915 42.3208 37.3152 42.3933C37.2389 42.4658 37.1374 42.5064 37.0319 42.5067H35.7345C35.6253 42.5067 35.5206 42.4636 35.4434 42.3869C35.3662 42.3101 35.3228 42.206 35.3228 42.0975C35.3228 41.989 35.3662 41.8849 35.4434 41.8081C35.5206 41.7314 35.6253 41.6883 35.7345 41.6883H37.0317C37.1372 41.6886 37.2387 41.7292 37.315 41.8017C37.3913 41.8743 37.4366 41.9732 37.4417 42.078C37.4417 42.0847 37.4396 42.091 37.4396 42.0977C37.4396 42.1044 37.4413 42.1103 37.4419 42.117ZM26.4044 38.6725H25.591L24.5618 37.9418V34.8168L25.5889 34.1005H26.404L26.4044 38.6725ZM35.0281 25.3726C32.8309 25.3843 30.72 26.2246 29.122 27.7237C27.5239 29.2227 26.5578 31.2689 26.4188 33.4487H25.82C25.9305 31.095 26.9488 28.8741 28.6635 27.2472C30.3782 25.6204 32.6575 24.7127 35.0278 24.7127C37.3982 24.7127 39.6775 25.6204 41.3922 27.2472C43.1069 28.8741 44.1252 31.095 44.2357 33.4487H43.6372C43.4986 31.2687 42.5327 29.2222 40.9346 27.7228C39.3366 26.2234 37.2256 25.3829 35.0281 25.3711V25.3726ZM45.4967 37.9427L44.4675 38.6734H43.6541V34.0997H44.4692L45.4963 34.8161L45.4967 37.9427Z" fill="white"/>
</g>
<defs>
<clipPath id="clip0_84_125">
<rect width="46.4072" height="46.131" fill="white"/>
</clipPath>
<clipPath id="clip1_84_125">
<rect width="23.9521" height="23.8095" fill="white" transform="translate(23.0537 23.2148)"/>
</clipPath>
</defs>
</svg>
