<svg width="50" height="50" viewBox="0 0 50 50" fill="none" xmlns="http://www.w3.org/2000/svg">
<path d="M48.2108 10.3828L39.617 1.78906C39.4681 1.64516 39.2695 1.56404 39.0623 1.5625H19.5311C18.9101 1.56435 18.315 1.81188 17.8759 2.25102C17.4367 2.69015 17.1892 3.28522 17.1873 3.90625V8.63281C12.9792 8.83006 9.00864 10.6406 6.10031 13.6884C3.19198 16.7363 1.56934 20.7872 1.56934 25C1.56934 29.2128 3.19198 33.2637 6.10031 36.3116C9.00864 39.3594 12.9792 41.1699 17.1873 41.3672V46.0938C17.1892 46.7148 17.4367 47.3098 17.8759 47.749C18.315 48.1881 18.9101 48.4356 19.5311 48.4375H46.0936C46.7146 48.4356 47.3097 48.1881 47.7488 47.749C48.188 47.3098 48.4355 46.7148 48.4373 46.0938V10.9375C48.4358 10.7304 48.3547 10.5318 48.2108 10.3828ZM39.8436 4.22656L45.7733 10.1562H40.6248C40.4176 10.1562 40.2189 10.0739 40.0724 9.92743C39.9259 9.78091 39.8436 9.5822 39.8436 9.375V4.22656ZM3.12484 25C3.12993 21.2002 4.59026 17.5467 7.20571 14.7903C9.82116 12.0339 13.3931 10.384 17.1873 10.1797V24.6797L6.95297 34.9141C4.48931 32.1999 3.1246 28.6656 3.12484 25ZM8.05453 36.0156L18.2889 25.7812H32.7889C32.6466 28.5806 31.7131 31.2822 30.0967 33.5722C28.4803 35.8622 26.2474 37.6467 23.6574 38.7184C21.0674 39.7901 18.2264 40.105 15.4646 39.6266C12.7027 39.1482 10.1332 37.896 8.05453 36.0156ZM46.8748 46.0938C46.8748 46.3009 46.7925 46.4997 46.646 46.6462C46.4995 46.7927 46.3008 46.875 46.0936 46.875H19.5311C19.3239 46.875 19.1252 46.7927 18.9787 46.6462C18.8322 46.4997 18.7498 46.3009 18.7498 46.0938V41.3672C22.9566 41.164 26.9243 39.3518 29.8325 36.3055C32.7407 33.2591 34.3669 29.2116 34.3748 25C34.3748 24.7928 34.2925 24.5941 34.146 24.4476C33.9995 24.3011 33.8008 24.2188 33.5936 24.2188H18.7498V3.90625C18.7498 3.69905 18.8322 3.50034 18.9787 3.35382C19.1252 3.20731 19.3239 3.125 19.5311 3.125H38.2811V9.375C38.2829 9.99603 38.5305 10.5911 38.9696 11.0302C39.4087 11.4694 40.0038 11.7169 40.6248 11.7188H46.8748V46.0938Z" fill="white"/>
<path d="M21.0938 5.46875C20.8865 5.46875 20.6878 5.55106 20.5413 5.69757C20.3948 5.84409 20.3125 6.0428 20.3125 6.25V21.875C20.3125 22.0822 20.3948 22.2809 20.5413 22.4274C20.6878 22.5739 20.8865 22.6562 21.0938 22.6562H36.7188C36.926 22.6562 37.1247 22.5739 37.2712 22.4274C37.4177 22.2809 37.5 22.0822 37.5 21.875C37.4952 17.5253 35.7652 13.355 32.6895 10.2793C29.6137 7.20354 25.4435 5.47351 21.0938 5.46875ZM21.875 21.0938V7.05469C25.5346 7.25119 28.9925 8.79338 31.5839 11.3848C34.1754 13.9763 35.7176 17.4341 35.9141 21.0938H21.875Z" fill="white"/>
<path d="M38.2813 31.25C36.8906 31.25 35.5312 31.6624 34.3749 32.435C33.2186 33.2076 32.3174 34.3057 31.7852 35.5905C31.253 36.8753 31.1138 38.2891 31.3851 39.653C31.6564 41.0169 32.3261 42.2698 33.3094 43.2531C34.2927 44.2364 35.5456 44.9061 36.9095 45.1774C38.2735 45.4487 39.6872 45.3095 40.972 44.7773C42.2568 44.2451 43.3549 43.3439 44.1275 42.1876C44.9001 41.0313 45.3125 39.6719 45.3125 38.2813C45.3096 36.4173 44.5679 34.6306 43.2499 33.3126C41.9319 31.9946 40.1452 31.2529 38.2813 31.25ZM38.2813 43.75C37.1996 43.75 36.1423 43.4293 35.243 42.8284C34.3436 42.2274 33.6427 41.3733 33.2288 40.3741C32.8149 39.3748 32.7066 38.2752 32.9176 37.2144C33.1286 36.1535 33.6494 35.1791 34.4143 34.4143C35.1791 33.6494 36.1535 33.1286 37.2144 32.9176C38.2752 32.7066 39.3748 32.8149 40.3741 33.2288C41.3733 33.6427 42.2274 34.3436 42.8284 35.243C43.4293 36.1423 43.75 37.1996 43.75 38.2813C43.7484 39.7311 43.1717 41.1212 42.1464 42.1464C41.1212 43.1717 39.7312 43.7484 38.2813 43.75Z" fill="white"/>
<path d="M36.7184 39.5199L34.927 37.7285L33.8223 38.8332L36.166 41.1769C36.3125 41.3234 36.5112 41.4057 36.7184 41.4057C36.9255 41.4057 37.1242 41.3234 37.2707 41.1769L41.9582 36.4895L40.8535 35.3848L36.7184 39.5199Z" fill="white"/>
<path d="M39.0625 14.8438H45.3125V16.4062H39.0625V14.8438Z" fill="white"/>
<path d="M39.0625 19.5312H45.3125V21.0938H39.0625V19.5312Z" fill="white"/>
<path d="M39.0625 24.2188H45.3125V25.7812H39.0625V24.2188Z" fill="white"/>
</svg>
