<svg width="29" height="29" viewBox="0 0 29 29" fill="none" xmlns="http://www.w3.org/2000/svg">
<path d="M20.4471 10.2353C20.8016 15.7451 16.6554 20.4969 11.1863 20.8488C5.71727 21.2007 0.996336 17.0193 0.641852 11.5096C0.287367 5.99977 4.43356 1.24796 9.90264 0.896094C15.3717 0.544228 20.0926 4.72555 20.4471 10.2353ZM3.76703 11.3085C4.00964 15.0794 7.24069 17.9412 10.9838 17.7004C14.7269 17.4595 17.5646 14.2074 17.322 10.4364C17.0793 6.66545 13.8483 3.80371 10.1052 4.04453C6.36211 4.28535 3.52442 7.53754 3.76703 11.3085Z" fill="#D7D7D7"/>
<line y1="-2.5" x2="13.6936" y2="-2.5" transform="matrix(0.776901 0.629623 -0.623852 0.781543 14.9004 17.9092)" stroke="#D7D7D7" stroke-width="5"/>
</svg>
