<svg width="46" height="46" viewBox="0 0 46 46" fill="none" xmlns="http://www.w3.org/2000/svg">
<path d="M8.375 0.5C4.01 0.5 0.5 4.01 0.5 8.375V37.625C0.5 41.99 4.01 45.5 8.375 45.5H32L45.5 32V8.375C45.5 4.01 41.99 0.5 37.625 0.5H8.375ZM8.9375 5H37.0625C38.1068 5 39.1083 5.41484 39.8467 6.15327C40.5852 6.89169 41 7.89321 41 8.9375V29.75H37.625C33.26 29.75 29.75 33.26 29.75 37.625V41H8.9375C7.89321 41 6.89169 40.5852 6.15327 39.8467C5.41484 39.1083 5 38.1068 5 37.0625V8.9375C5 7.89321 5.41484 6.89169 6.15327 6.15327C6.89169 5.41484 7.89321 5 8.9375 5ZM28.49 11.2325C28.13 11.2325 27.77 11.2775 27.4325 11.3675C25.3175 11.9525 24.125 14.1125 24.665 16.25C24.7775 16.5875 24.935 16.925 25.1375 17.24L32.405 15.26C32.405 14.8775 32.36 14.495 32.27 14.1125C31.7975 12.425 30.245 11.2325 28.49 11.2325ZM14.3825 15.125C14 15.125 13.6625 15.125 13.325 15.2375C11.2325 15.8225 9.995 17.9825 10.5575 20.075C10.625 20.435 10.8275 20.75 11.03 21.11L18.2975 19.13C18.2975 18.7475 18.2525 18.365 18.1625 18.005C17.9424 17.173 17.4512 16.4381 16.7666 15.9165C16.082 15.3949 15.2431 15.1164 14.3825 15.125ZM33.62 21.335L13.0775 26.9825C14.5363 28.6707 16.4422 29.9126 18.5758 30.5654C20.7093 31.2182 22.9838 31.2553 25.1375 30.6725C27.2864 30.0713 29.2222 28.8763 30.7226 27.2246C32.2231 25.5729 33.2273 23.5316 33.62 21.335Z" fill="#3672CF" fill-opacity="0.4"/>
</svg>
