<svg width="127" height="127" viewBox="0 0 127 127" fill="none" xmlns="http://www.w3.org/2000/svg">
<g clip-path="url(#clip0_129_9)">
<path d="M99.6945 37.0883C95.2794 15.6316 74.3058 1.81684 52.8492 6.23203C34.4762 10.0128 21.2638 26.1472 21.1796 44.9047C21.1796 45.7984 21.2165 46.7134 21.2958 47.6812C8.22504 49.0648 -1.24939 60.7823 0.134163 73.8531C1.41658 85.9682 11.6409 95.1588 23.8237 95.1469H26.6003C26.5368 94.269 26.4681 93.3964 26.4681 92.5025C26.4681 73.5172 41.8588 58.1262 60.8444 58.1262C79.8299 58.1262 95.2204 73.5172 95.2204 92.5025C95.2204 93.3962 95.1517 94.2688 95.0882 95.1469H97.8648C113.912 95.1908 126.956 82.2176 127 66.1705C127.042 50.7729 115.065 38.0159 99.6945 37.0883Z" fill="#BBDEFB"/>
<path d="M60.8443 121.59C76.9088 121.59 89.9317 108.567 89.9317 92.5025C89.9317 76.4379 76.9088 63.415 60.8443 63.415C44.7797 63.415 31.7568 76.4379 31.7568 92.5025C31.7568 108.567 44.7797 121.59 60.8443 121.59Z" fill="#549DED"/>
<path d="M60.8441 111.013C59.3837 111.013 58.1997 109.829 58.1997 108.368V76.6366C58.1997 75.1762 59.3837 73.9922 60.8441 73.9922C62.3045 73.9922 63.4885 75.1762 63.4885 76.6366V108.368C63.4883 109.829 62.3045 111.013 60.8441 111.013Z" fill="#FAFAFA"/>
<path d="M71.4213 89.859C70.7195 89.8603 70.046 89.5826 69.5492 89.0868L60.844 80.3764L52.1388 89.0868C51.0884 90.1015 49.4143 90.0722 48.3996 89.0219C47.4098 87.997 47.4098 86.3725 48.3996 85.3477L58.977 74.7703C60.0095 73.738 61.6834 73.738 62.7161 74.7703L73.2935 85.3477C74.3245 86.3819 74.3221 88.0563 73.2876 89.0873C72.7922 89.5814 72.1212 89.8588 71.4213 89.859Z" fill="#FAFAFA"/>
</g>
<defs>
<clipPath id="clip0_129_9">
<rect width="127" height="127" fill="white"/>
</clipPath>
</defs>
</svg>
