<svg width="24" height="24" viewBox="0 0 24 24" fill="none" xmlns="http://www.w3.org/2000/svg">
<path d="M11.9993 0.666992C13.5022 0.666992 14.9436 1.26401 16.0063 2.32672C17.069 3.38943 17.666 4.83076 17.666 6.33366C17.666 7.83655 17.069 9.27789 16.0063 10.3406C14.9436 11.4033 13.5022 12.0003 11.9993 12.0003C10.4965 12.0003 9.05512 11.4033 7.99241 10.3406C6.9297 9.27789 6.33268 7.83655 6.33268 6.33366C6.33268 4.83076 6.9297 3.38943 7.99241 2.32672C9.05512 1.26401 10.4965 0.666992 11.9993 0.666992ZM11.9993 14.8337C18.261 14.8337 23.3327 17.3695 23.3327 20.5003V23.3337H0.666016V20.5003C0.666016 17.3695 5.73768 14.8337 11.9993 14.8337Z" fill="#565656"/>
</svg>
