<svg width="38" height="39" viewBox="0 0 38 39" fill="none" xmlns="http://www.w3.org/2000/svg">
<g clip-path="url(#clip0_84_81)">
<path d="M18.9883 30.537C20.0115 30.537 20.8409 29.6899 20.8409 28.6449C20.8409 27.6 20.0115 26.7529 18.9883 26.7529C17.9652 26.7529 17.1357 27.6 17.1357 28.6449C17.1357 29.6899 17.9652 30.537 18.9883 30.537Z" fill="#476DA9"/>
<path d="M18.9882 0C8.50366 0 0.0175781 8.66519 0.0175781 19.3742C0.0175781 30.0818 8.50225 38.7484 18.9882 38.7484C29.4727 38.7484 37.9588 30.0832 37.9588 19.3742C37.9588 8.66663 29.4741 0 18.9882 0ZM18.9882 35.7212C10.1419 35.7212 2.98173 28.4099 2.98173 19.3742C2.98173 10.3397 10.1407 3.02722 18.9882 3.02722C27.8345 3.02722 34.9946 10.3385 34.9946 19.3742C34.9946 28.4087 27.8356 35.7212 18.9882 35.7212Z" fill="#476DA9"/>
<path d="M18.9879 9.72461C15.719 9.72461 13.0596 12.4406 13.0596 15.7791C13.0596 16.615 13.7231 17.2927 14.5416 17.2927C15.3602 17.2927 16.0237 16.615 16.0237 15.7791C16.0237 14.1098 17.3534 12.7518 18.9879 12.7518C20.6223 12.7518 21.952 14.1098 21.952 15.7791C21.952 17.4483 20.6223 18.8063 18.9879 18.8063C18.1693 18.8063 17.5058 19.4839 17.5058 20.3199V24.1039C17.5058 24.9399 18.1693 25.6175 18.9879 25.6175C19.8064 25.6175 20.47 24.9399 20.47 24.1039V21.6419C23.024 20.9682 24.9162 18.595 24.9162 15.7791C24.9162 12.4406 22.2567 9.72461 18.9879 9.72461Z" fill="#476DA9"/>
</g>
<defs>
<clipPath id="clip0_84_81">
<rect width="37.9412" height="38.7484" fill="white" transform="translate(0.0175781)"/>
</clipPath>
</defs>
</svg>
