<svg width="40" height="39" viewBox="0 0 40 39" fill="none" xmlns="http://www.w3.org/2000/svg">
<g clip-path="url(#clip0_84_88)">
<path d="M20.887 38.7484H18.4551C16.4883 38.7484 14.888 37.1482 14.888 35.1814V34.3587C14.0518 34.0915 13.2394 33.7543 12.4589 33.3504L11.8758 33.9334C10.4637 35.3473 8.20171 35.3058 6.8306 33.9329L5.11182 32.2142C3.7383 30.8422 3.69879 28.5809 5.11228 27.1689L5.69486 26.5863C5.29096 25.8059 4.9538 24.9936 4.68657 24.1572H3.86393C1.89714 24.1572 0.296875 22.557 0.296875 20.5902V18.1583C0.296875 16.1914 1.89714 14.5912 3.864 14.5912H4.68665C4.95388 13.7549 5.29103 12.9426 5.69494 12.1621L5.1119 11.5791C3.69924 10.168 3.73822 7.9065 5.11235 6.53388L6.83128 4.81502C8.20557 3.43885 10.4671 3.40449 11.8765 4.81548L12.459 5.39799C13.2395 4.99416 14.0519 4.65693 14.8881 4.3897V3.56705C14.8881 1.60019 16.4883 0 18.4552 0H20.8871C22.8539 0 24.4541 1.60019 24.4541 3.56705V4.38977C25.2903 4.65693 26.1027 4.99416 26.8832 5.39807L27.4663 4.81502C28.8784 3.40116 31.1404 3.44263 32.5115 4.81555L34.2303 6.53426C35.6038 7.90627 35.6433 10.1675 34.2298 11.5795L33.6472 12.1621C34.0512 12.9426 34.3883 13.7549 34.6555 14.5912H35.4782C37.445 14.5912 39.0453 16.1914 39.0453 18.1583V20.5902C39.0453 22.557 37.445 24.1572 35.4782 24.1572H34.6555C34.3883 24.9935 34.0512 25.8059 33.6472 26.5863L34.2303 27.1694C35.6429 28.5805 35.604 30.842 34.2298 32.2146L32.5109 33.9335C31.1366 35.3097 28.8751 35.344 27.4657 33.933L26.8832 33.3505C26.1027 33.7544 25.2903 34.0916 24.4541 34.3588V35.1815C24.4541 37.1482 22.8539 38.7484 20.887 38.7484ZM12.8384 30.9662C13.9227 31.6074 15.0897 32.0919 16.3069 32.406C16.8083 32.5354 17.1585 32.9875 17.1585 33.5052V35.1814C17.1585 35.8963 17.7403 36.478 18.4552 36.478H20.8871C21.602 36.478 22.1838 35.8963 22.1838 35.1814V33.5052C22.1838 32.9875 22.534 32.5354 23.0353 32.406C24.2526 32.0919 25.4196 31.6074 26.5038 30.9662C26.95 30.7024 27.518 30.7741 27.8845 31.1406L29.0718 32.328C29.5837 32.8405 30.4057 32.8286 30.905 32.3285L32.625 30.6086C33.1232 30.1111 33.1398 29.2889 32.6255 28.7753L31.4377 27.5874C31.0712 27.221 30.9995 26.6529 31.2632 26.2069C31.9045 25.1227 32.3888 23.9557 32.703 22.7384C32.8324 22.2371 33.2845 21.8869 33.8022 21.8869H35.4783C36.1932 21.8869 36.775 21.3052 36.775 20.5903V18.1583C36.775 17.4434 36.1932 16.8617 35.4783 16.8617H33.8022C33.2844 16.8617 32.8324 16.5114 32.703 16.0102C32.3888 14.7929 31.9044 13.6259 31.2632 12.5417C30.9995 12.0956 31.0712 11.5276 31.4377 11.1611L32.625 9.97379C33.1383 9.46113 33.1249 8.63924 32.6255 8.14043L30.9056 6.42059C30.4071 5.9214 29.5849 5.90679 29.0723 6.42013L27.8846 7.60794C27.5181 7.97446 26.9499 8.0462 26.5039 7.78238C25.4196 7.14114 24.2526 6.65671 23.0354 6.34256C22.5341 6.21322 22.1838 5.76111 22.1838 5.24337V3.56705C22.1838 2.8521 21.6021 2.27042 20.8871 2.27042H18.4553C17.7403 2.27042 17.1586 2.8521 17.1586 3.56705V5.24322C17.1586 5.76095 16.8083 6.21307 16.307 6.34241C15.0898 6.65656 13.9228 7.14099 12.8385 7.78223C12.3923 8.04598 11.8243 7.97423 11.4579 7.60779L10.2706 6.42043C9.75868 5.90793 8.93657 5.91981 8.4373 6.4199L6.71731 8.13982C6.21918 8.63734 6.20253 9.45946 6.71686 9.97318L7.90466 11.161C8.27111 11.5274 8.34285 12.0955 8.0791 12.5416C7.43786 13.6258 6.95351 14.7927 6.63936 16.0101C6.50994 16.5114 6.05783 16.8615 5.54017 16.8615H3.864C3.14905 16.8616 2.56729 17.4433 2.56729 18.1583V20.5902C2.56729 21.3051 3.14905 21.8868 3.864 21.8868H5.5401C6.05783 21.8868 6.50987 22.2371 6.63928 22.7383C6.95343 23.9556 7.43786 25.1226 8.07903 26.2068C8.34278 26.6529 8.27103 27.2209 7.90459 27.5874L6.71723 28.7747C6.20397 29.2874 6.21736 30.1093 6.71678 30.6081L8.43662 32.3279C8.93513 32.8271 9.75732 32.8417 10.27 32.3284L11.4577 31.1406C11.7277 30.8706 12.2895 30.6415 12.8384 30.9662Z" fill="#476DA9"/>
<path d="M19.671 27.805C15.0222 27.805 11.2402 24.0229 11.2402 19.3742C11.2402 14.7254 15.0222 10.9434 19.671 10.9434C24.3199 10.9434 28.1019 14.7254 28.1019 19.3742C28.1019 24.0229 24.3199 27.805 19.671 27.805ZM19.671 13.2138C16.2741 13.2138 13.5107 15.9773 13.5107 19.3742C13.5107 22.771 16.2742 25.5346 19.671 25.5346C23.0679 25.5346 25.8314 22.771 25.8314 19.3742C25.8314 15.9773 23.068 13.2138 19.671 13.2138Z" fill="#476DA9"/>
</g>
<defs>
<clipPath id="clip0_84_88">
<rect width="38.7484" height="38.7484" fill="white" transform="translate(0.296875)"/>
</clipPath>
</defs>
</svg>
