<svg width="40" height="39" viewBox="0 0 40 39" fill="none" xmlns="http://www.w3.org/2000/svg">
<path d="M33.9281 31.1804H33.085C31.4069 28.0273 30.5224 24.493 30.5224 20.9164V15.6659C30.5224 11.3685 27.8553 7.68263 24.0896 6.17576V3.78403C24.0896 1.69751 22.3921 0 20.3056 0C18.219 0 16.5215 1.69751 16.5215 3.78403V6.17576C12.7558 7.68263 10.0887 11.3684 10.0887 15.6659V20.9164C10.0887 24.4929 9.20421 28.0272 7.52614 31.1804H6.68306C6.05612 31.1804 5.54785 31.6887 5.54785 32.3156C5.54785 32.9425 6.05612 33.4508 6.68306 33.4508H13.975C14.513 36.458 17.1459 38.7484 20.3056 38.7484C23.4652 38.7484 26.0981 36.458 26.6361 33.4508H33.9281C34.555 33.4508 35.0633 32.9425 35.0633 32.3156C35.0633 31.6887 34.555 31.1804 33.9281 31.1804ZM18.7919 3.78403C18.7919 2.94942 19.471 2.27042 20.3056 2.27042C21.1402 2.27042 21.8192 2.94942 21.8192 3.78403V5.56131C21.3251 5.4876 20.8198 5.449 20.3056 5.449C19.7913 5.449 19.286 5.4876 18.7919 5.56131V3.78403ZM12.3591 15.6659C12.3591 11.2842 15.9239 7.71942 20.3056 7.71942C24.6872 7.71942 28.252 11.2842 28.252 15.6659V20.9164C28.252 22.5897 28.4274 24.2546 28.7704 25.8827H11.8407C12.1837 24.2547 12.3591 22.5897 12.3591 20.9164V15.6659ZM11.2458 28.1532H29.3653C29.6902 29.1861 30.0843 30.1979 30.5462 31.1804H10.0649C10.5268 30.1979 10.9209 29.1861 11.2458 28.1532ZM20.3056 36.478C18.4039 36.478 16.7973 35.1958 16.3018 33.4508H24.3093C23.8138 35.1958 22.2072 36.478 20.3056 36.478Z" fill="#476DA9"/>
<path d="M37.3559 13.7554C36.9126 13.312 36.1938 13.312 35.7505 13.7554C35.3071 14.1987 35.3071 14.9174 35.7505 15.3608C36.8205 16.4308 37.4098 17.8562 37.4098 19.3743C37.4098 20.8925 36.8205 22.3179 35.7505 23.3879C35.3071 23.8312 35.3071 24.55 35.7505 24.9933C35.9721 25.215 36.2626 25.3259 36.5531 25.3259C36.8436 25.3259 37.1342 25.215 37.3558 24.9933C38.8548 23.4945 39.6802 21.4989 39.6802 19.3743C39.6802 17.2498 38.8548 15.2542 37.3559 13.7554Z" fill="#476DA9"/>
<path d="M32.5395 16.9663C32.0962 17.4096 32.0962 18.1284 32.5395 18.5717C32.7539 18.7861 32.8721 19.0712 32.8721 19.3744C32.8721 19.6777 32.7539 19.9627 32.5395 20.1772C32.0962 20.6205 32.0962 21.3393 32.5395 21.7826C32.7612 22.0043 33.0517 22.1151 33.3422 22.1151C33.6327 22.1151 33.9233 22.0043 34.1449 21.7826C35.4728 20.4548 35.4728 18.2942 34.1449 16.9663C33.7017 16.523 32.9829 16.523 32.5395 16.9663Z" fill="#476DA9"/>
<path d="M4.86143 13.7553C4.41817 13.3121 3.69943 13.312 3.25602 13.7553C1.75709 15.2542 0.931641 17.2497 0.931641 19.3743C0.931641 21.4989 1.75709 23.4944 3.25602 24.9933C3.47769 25.2149 3.76822 25.3258 4.05869 25.3258C4.34915 25.3258 4.63976 25.215 4.86135 24.9933C5.30469 24.5499 5.30469 23.8312 4.86135 23.3879C3.79138 22.3178 3.20206 20.8925 3.20206 19.3743C3.20206 17.8562 3.79138 16.4308 4.86143 15.3607C5.30477 14.9174 5.30477 14.1987 4.86143 13.7553Z" fill="#476DA9"/>
<path d="M7.26936 22.1151C7.5599 22.1151 7.85044 22.0043 8.07203 21.7826C8.51537 21.3393 8.51537 20.6205 8.07203 20.1772C7.85763 19.9628 7.73949 19.6777 7.73949 19.3744C7.73949 19.0712 7.85763 18.7862 8.07203 18.5717C8.51537 18.1284 8.51537 17.4096 8.07203 16.9663C7.62877 16.523 6.90996 16.523 6.46662 16.9663C5.13873 18.2941 5.13873 20.4547 6.46662 21.7826C6.68829 22.0043 6.97883 22.1151 7.26936 22.1151Z" fill="#476DA9"/>
</svg>
